<?xml version="1.0" encoding="UTF-8"?>
<!DOCTYPE svg PUBLIC "-//W3C//DTD SVG 1.1//EN" "http://www.w3.org/Graphics/SVG/1.1/DTD/svg11.dtd">
<svg xmlns="http://www.w3.org/2000/svg" version="1.1" width="183px" height="42px" style="shape-rendering:geometricPrecision; text-rendering:geometricPrecision; image-rendering:optimizeQuality; fill-rule:evenodd; clip-rule:evenodd" xmlns:xlink="http://www.w3.org/1999/xlink">
<g><path style="opacity:0.877" fill="#b0161f" d="M 4.5,-0.5 C 5.83333,-0.5 7.16667,-0.5 8.5,-0.5C 8.5,1.5 8.5,3.5 8.5,5.5C 4.52411,7.88488 4.52411,10.2182 8.5,12.5C 8.5,14.5 8.5,16.5 8.5,18.5C 7.83333,18.5 7.16667,18.5 6.5,18.5C 6.16667,18.5 5.83333,18.5 5.5,18.5C 5.5,17.8333 5.16667,17.5 4.5,17.5C 5.1128,11.7291 4.44613,6.3958 2.5,1.5C 3.16667,0.833333 3.83333,0.166667 4.5,-0.5 Z"/></g>
<g><path style="opacity:0.969" fill="#cb1e27" d="M 8.5,-0.5 C 10.1667,-0.5 11.8333,-0.5 13.5,-0.5C 13.8333,0.166667 14.1667,0.833333 14.5,1.5C 14.5,6.5 14.5,11.5 14.5,16.5C 14.5,16.8333 14.5,17.1667 14.5,17.5C 14.1667,17.5 13.8333,17.5 13.5,17.5C 12.8333,17.5 12.5,17.8333 12.5,18.5C 12.1667,18.5 11.8333,18.5 11.5,18.5C 10.5,18.5 9.5,18.5 8.5,18.5C 8.5,16.5 8.5,14.5 8.5,12.5C 13.6501,9.93565 13.6501,7.60232 8.5,5.5C 8.5,3.5 8.5,1.5 8.5,-0.5 Z"/></g>
<g><path style="opacity:0.91" fill="#ae161f" d="M 23.5,-0.5 C 24.5,-0.5 25.5,-0.5 26.5,-0.5C 26.3253,1.6208 26.6586,3.6208 27.5,5.5C 25.5159,5.484 24.5159,6.484 24.5,8.5C 24.7517,10.0729 25.4183,11.4062 26.5,12.5C 26.5,14.5 26.5,16.5 26.5,18.5C 25.8333,18.5 25.1667,18.5 24.5,18.5C 24.1583,17.6618 23.4916,17.3284 22.5,17.5C 22.5,17.1667 22.5,16.8333 22.5,16.5C 22.5,11.1667 22.5,5.83333 22.5,0.5C 23.1667,0.5 23.5,0.166667 23.5,-0.5 Z"/></g>
<g><path style="opacity:0.917" fill="#cb1e27" d="M 26.5,-0.5 C 28.1667,-0.5 29.8333,-0.5 31.5,-0.5C 31.5,0.166667 31.8333,0.5 32.5,0.5C 33.3403,6.00807 33.3403,10.8414 32.5,15C 33.0944,15.4643 33.7611,15.631 34.5,15.5C 33.1667,16.5 31.8333,17.5 30.5,18.5C 30.1667,18.5 29.8333,18.5 29.5,18.5C 28.5,18.5 27.5,18.5 26.5,18.5C 26.5,16.5 26.5,14.5 26.5,12.5C 29.9549,11.8716 31.1215,9.87163 30,6.5C 29.3292,5.74756 28.4959,5.41423 27.5,5.5C 26.6586,3.6208 26.3253,1.6208 26.5,-0.5 Z"/></g>
<g><path style="opacity:0.95" fill="#9f141c" d="M 22.5,0.5 C 22.5,5.83333 22.5,11.1667 22.5,16.5C 20.2901,16.106 18.9568,14.7727 18.5,12.5C 18.5,10.1667 18.5,7.83333 18.5,5.5C 19.0798,3.25124 20.4131,1.58457 22.5,0.5 Z"/></g>
<g><path style="opacity:0.968" fill="#9f141c" d="M 2.5,1.5 C 4.44613,6.3958 5.1128,11.7291 4.5,17.5C 2.83333,16.1667 1.16667,14.8333 -0.5,13.5C -0.5,10.5 -0.5,7.5 -0.5,4.5C 0.271873,3.30646 1.27187,2.30646 2.5,1.5 Z"/></g>
<g><path style="opacity:0.008" fill="#fefffe" d="M 151.5,4.5 C 150.833,3.16667 150.833,3.16667 151.5,4.5 Z"/></g>
<g><path style="opacity:0.895" fill="#d9242e" d="M 14.5,1.5 C 16.1942,2.52743 17.5275,3.86076 18.5,5.5C 18.5,7.83333 18.5,10.1667 18.5,12.5C 17.5275,14.1392 16.1942,15.4726 14.5,16.5C 14.5,11.5 14.5,6.5 14.5,1.5 Z"/></g>
<g><path style="opacity:0.764" fill="#fefffe" d="M 71.5,4.5 C 73.1207,4.7869 74.1207,5.7869 74.5,7.5C 73.6889,11.7925 73.0223,16.1259 72.5,20.5C 73.3792,23.8121 73.5459,27.1454 73,30.5C 72,31.8333 71,31.8333 70,30.5C 69.6667,24.8333 69.3333,19.1667 69,13.5C 67.311,16.8915 65.1443,19.8915 62.5,22.5C 60.1741,20.0029 58.0074,17.3362 56,14.5C 54.2282,19.4349 54.0615,24.4349 55.5,29.5C 54.8551,30.646 54.0217,31.646 53,32.5C 51.3697,24.6655 51.0363,16.6655 52,8.5C 52.8373,6.99256 54.0039,6.49256 55.5,7C 58.0083,10.3381 60.675,13.5048 63.5,16.5C 66.5848,12.7542 69.2515,8.75418 71.5,4.5 Z"/></g>
<g><path style="opacity:0.689" fill="#fefffe" d="M 120.5,4.5 C 122.604,4.2011 124.604,4.53443 126.5,5.5C 123.504,6.76652 120.837,8.59985 118.5,11C 121.995,13.6872 125.495,16.5205 129,19.5C 130.345,25.3093 128.178,29.1426 122.5,31C 120.2,31.6583 117.867,32.1583 115.5,32.5C 114.006,32.2908 112.839,31.6241 112,30.5C 103.323,33.8272 100.323,30.8272 103,21.5C 105.125,16.3882 108.291,15.3882 112.5,18.5C 110.748,21.672 108.748,24.672 106.5,27.5C 106.709,28.086 107.043,28.586 107.5,29C 109.544,29.0481 111.544,28.5481 113.5,27.5C 114.711,28.2739 114.711,29.1072 113.5,30C 119.096,31.032 123.096,29.032 125.5,24C 123.625,20.2045 120.625,17.5378 116.5,16C 113.278,14.0096 112.778,11.5096 115,8.5C 117.015,7.30342 118.849,5.97008 120.5,4.5 Z M 107.5,20.5 C 107.539,21.7562 107.039,22.7562 106,23.5C 105.415,22.0024 105.915,21.0024 107.5,20.5 Z"/></g>
<g><path style="opacity:0.008" fill="#fefffe" d="M 151.5,4.5 C 152.833,5.16667 152.833,5.16667 151.5,4.5 Z"/></g>
<g><path style="opacity:0.984" fill="#dc242e" d="M 32.5,0.5 C 38.1736,4.85445 38.8403,9.85445 34.5,15.5C 33.7611,15.631 33.0944,15.4643 32.5,15C 33.3403,10.8414 33.3403,6.00807 32.5,0.5 Z"/></g>
<g><path style="opacity:0.623" fill="#fefffe" d="M 100.5,10.5 C 102.355,10.272 103.188,10.9387 103,12.5C 101.556,14.1554 99.7224,14.822 97.5,14.5C 97.5,13.5 97.5,12.5 97.5,11.5C 98.791,11.7373 99.791,11.404 100.5,10.5 Z"/></g>
<g><path style="opacity:0.675" fill="#fefffe" d="M 78.5,15.5 C 81.9612,15.1459 84.4612,16.4792 86,19.5C 86.1962,17.7139 87.0295,16.3805 88.5,15.5C 89.6667,18.8333 90.8333,22.1667 92,25.5C 92.951,21.9734 94.2843,18.6401 96,15.5C 96.0537,21.0618 94.887,26.3951 92.5,31.5C 91.675,32.3857 90.675,32.719 89.5,32.5C 88.8611,28.4728 88.0278,24.4728 87,20.5C 86.8198,23.9555 86.1532,27.2889 85,30.5C 78.2756,33.6473 75.109,31.314 75.5,23.5C 75.0775,20.2185 76.0775,17.5518 78.5,15.5 Z M 79.5,18.5 C 80.8221,18.33 81.9887,18.6634 83,19.5C 84.1163,23.2885 83.4496,26.6218 81,29.5C 78.3318,26.1537 77.8318,22.487 79.5,18.5 Z"/></g>
<g><path style="opacity:0.731" fill="#fefffe" d="M 157.5,21.5 C 156.504,21.5858 155.671,21.2524 155,20.5C 152.052,23.9127 150.885,27.9127 151.5,32.5C 150.5,32.5 149.5,32.5 148.5,32.5C 148.515,28.4402 148.015,24.4402 147,20.5C 145.534,26.1211 142.201,30.1211 137,32.5C 136.5,32.1667 136,31.8333 135.5,31.5C 137.483,29.0163 139.65,26.6829 142,24.5C 143.301,22.6354 143.635,20.6354 143,18.5C 135.048,24.1643 132.214,31.831 134.5,41.5C 133.5,41.5 132.5,41.5 131.5,41.5C 131.334,33.16 131.5,24.8267 132,16.5C 132.414,16.0426 132.914,15.7093 133.5,15.5C 134.308,17.4233 134.808,19.4233 135,21.5C 139.055,16.2152 144.222,14.5485 150.5,16.5C 150.34,18.1992 150.506,19.8659 151,21.5C 152.135,18.2927 154.135,16.9594 157,17.5C 157.49,18.7932 157.657,20.1266 157.5,21.5 Z"/></g>
<g><path style="opacity:0.65" fill="#fefffe" d="M 99.5,16.5 C 100.748,17.3339 101.415,18.6672 101.5,20.5C 100.563,23.7086 100.563,26.8753 101.5,30C 101.387,31.2798 100.72,32.1131 99.5,32.5C 97.976,31.4729 97.3094,29.9729 97.5,28C 97.9394,24.0812 98.6061,20.2479 99.5,16.5 Z"/></g>
<g><path style="opacity:0.689" fill="#fefffe" d="M 157.5,21.5 C 158.596,19.8968 159.93,18.3968 161.5,17C 166.624,15.4527 168.124,16.9527 166,21.5C 164.692,23.6414 163.192,25.6414 161.5,27.5C 161.833,28.5 162.5,29.1667 163.5,29.5C 167.836,28.7085 169.67,26.0419 169,21.5C 171.125,16.3882 174.291,15.3882 178.5,18.5C 176.748,21.672 174.748,24.672 172.5,27.5C 172.833,28.5 173.5,29.1667 174.5,29.5C 176.548,28.23 178.548,27.8967 180.5,28.5C 176.837,32.446 172.67,33.1127 168,30.5C 159.032,34.2032 155.532,31.2032 157.5,21.5 Z M 162.5,20.5 C 162.539,21.7562 162.039,22.7562 161,23.5C 160.415,22.0024 160.915,21.0024 162.5,20.5 Z M 173.5,20.5 C 173.539,21.7562 173.039,22.7562 172,23.5C 171.415,22.0024 171.915,21.0024 173.5,20.5 Z"/></g>
<g><path style="opacity:0.976" fill="#97131a" d="M 5.5,18.5 C 5.83333,18.5 6.16667,18.5 6.5,18.5C 6.5,18.8333 6.5,19.1667 6.5,19.5C 5.83333,26.5 5.16667,33.5 4.5,40.5C 3.5041,40.5858 2.67076,40.2524 2,39.5C 1.33333,33.1667 1.33333,26.8333 2,20.5C 2.70956,19.0267 3.87623,18.3601 5.5,18.5 Z"/></g>
<g><path style="opacity:0.96" fill="#c71c25" d="M 17.5,17.5 C 19.1667,17.5 20.8333,17.5 22.5,17.5C 22.8417,18.3382 23.5084,18.6716 24.5,18.5C 24.5,19.1667 24.8333,19.5 25.5,19.5C 24.8495,26.8738 24.8495,34.2071 25.5,41.5C 22.5,41.5 19.5,41.5 16.5,41.5C 17.0069,39.1825 17.3402,36.5158 17.5,33.5C 18.9869,32.1964 20.6536,31.0298 22.5,30C 20.6107,28.2359 18.6107,26.7359 16.5,25.5C 17.312,23.0771 17.6453,20.4104 17.5,17.5 Z"/></g>
<g><path style="opacity:0.95" fill="#de252f" d="M 30.5,18.5 C 34.0091,18.8079 35.6757,20.8079 35.5,24.5C 35.5,27.8333 35.5,31.1667 35.5,34.5C 35.3122,37.2061 34.3122,39.5395 32.5,41.5C 31.8333,41.5 31.1667,41.5 30.5,41.5C 31.0644,34.167 31.0644,26.5004 30.5,18.5 Z"/></g>
<g><path style="opacity:0.974" fill="#a5151d" d="M 6.5,19.5 C 8.16667,19.5 9.83333,19.5 11.5,19.5C 12.4409,26.7145 12.4409,34.0479 11.5,41.5C 9.16667,41.5 6.83333,41.5 4.5,41.5C 4.5,41.1667 4.5,40.8333 4.5,40.5C 5.16667,33.5 5.83333,26.5 6.5,19.5 Z"/></g>
<g><path style="opacity:0.983" fill="#d5222b" d="M 29.5,18.5 C 29.8333,18.5 30.1667,18.5 30.5,18.5C 31.0644,26.5004 31.0644,34.167 30.5,41.5C 28.8333,41.5 27.1667,41.5 25.5,41.5C 24.8495,34.2071 24.8495,26.8738 25.5,19.5C 27.099,19.7678 28.4324,19.4345 29.5,18.5 Z"/></g>
<g><path style="opacity:0.978" fill="#df262f" d="M 45.5,19.5 C 46.4584,19.9528 47.2917,20.6195 48,21.5C 48.6667,26.8333 48.6667,32.1667 48,37.5C 47.5831,38.756 46.7498,39.4226 45.5,39.5C 45.5,32.8333 45.5,26.1667 45.5,19.5 Z"/></g>
<g><path style="opacity:0.967" fill="#c51b24" d="M 45.5,19.5 C 45.5,26.1667 45.5,32.8333 45.5,39.5C 43.847,39.3404 42.5137,38.6737 41.5,37.5C 41.5,32.1667 41.5,26.8333 41.5,21.5C 42.8333,20.8333 44.1667,20.1667 45.5,19.5 Z"/></g>
<g><path style="opacity:0.942" fill="#9e131c" d="M 39.5,22.5 C 39.5,27.1667 39.5,31.8333 39.5,36.5C 38.1667,35.8333 36.8333,35.1667 35.5,34.5C 35.5,31.1667 35.5,27.8333 35.5,24.5C 37.0618,24.2671 38.3951,23.6005 39.5,22.5 Z"/></g>
<g><path style="opacity:0.911" fill="#b4171f" d="M 13.5,17.5 C 13.8333,17.5 14.1667,17.5 14.5,17.5C 15.5,17.5 16.5,17.5 17.5,17.5C 17.6453,20.4104 17.312,23.0771 16.5,25.5C 15.8442,26.6216 15.5108,27.9549 15.5,29.5C 15.5854,31.3328 16.2521,32.6661 17.5,33.5C 17.3402,36.5158 17.0069,39.1825 16.5,41.5C 14.8333,41.5 13.1667,41.5 11.5,41.5C 12.4409,34.0479 12.4409,26.7145 11.5,19.5C 11.5,19.1667 11.5,18.8333 11.5,18.5C 11.8333,18.5 12.1667,18.5 12.5,18.5C 13.1667,18.5 13.5,18.1667 13.5,17.5 Z"/></g>
<g><path style="opacity:0.999" fill="#b1171f" d="M 41.5,21.5 C 41.5,26.8333 41.5,32.1667 41.5,37.5C 40.8333,37.1667 40.1667,36.8333 39.5,36.5C 39.5,31.8333 39.5,27.1667 39.5,22.5C 40.1667,22.1667 40.8333,21.8333 41.5,21.5 Z"/></g>
<g><path style="opacity:0.086" fill="#fefffe" d="M 179.5,36.5 C 180.376,36.3691 181.043,36.7025 181.5,37.5C 179.192,38.8734 178.525,38.5401 179.5,36.5 Z"/></g>
</svg>
